# xmcd
#
# Track frame offsets:
#	150
#	9732
#	18242
#	31947
#	45525
#	54870
#	63525
#	73210
#	85032
#	98690
#	112082
#	124055
#	135517
#
# Disc length: 2017 seconds
# Revision: 0
# Processed by: cddbd v1.5.2PL0 Copyright (c) Steve Scherf et al.
# Submitted via: dBpowerAMP V12.0
#
DISCID=a607df0d
DTITLE=The Karl Shiflett and Big Country Show - Take Me Back
DYEAR=2012
DGENRE=Country
TTITLE0=Take Me Back to Tulsa
TTITLE1=Blue Blue Day
TTITLE2=Hot Foot
TTITLE3=Song on the Juke Box
TTITLE4=Sally Don't You Grieve
TTITLE5=I Gotta Get Drunk
TTITLE6=Tennessee Cut Up Breakdown
TTITLE7=Just Come to Get My Baby
TTITLE8=Open up Your Heart (and Let Jesus In)
TTITLE9=Brand New Silent Partner
TTITLE10=Frog on a Lilly Pad
TTITLE11=Makes No Difference Now
TTITLE12=Mama Don't Allow
EXTD=
EXTT0=
EXTT1=
EXTT2=
EXTT3=
EXTT4=
EXTT5=
EXTT6=
EXTT7=
EXTT8=
EXTT9=
EXTT10=
EXTT11=
EXTT12=
PLAYORDER=
